<svg width="20" height="22" viewBox="0 0 20 22" fill="none" xmlns="http://www.w3.org/2000/svg">
<path d="M8 13C7.69555 12.9964 7.39732 13.0862 7.14544 13.2573C6.89357 13.4284 6.70015 13.6725 6.59121 13.9568C6.48228 14.2411 6.46306 14.552 6.53615 14.8476C6.60923 15.1431 6.77111 15.4092 7 15.61V17C7 17.2652 7.10536 17.5196 7.29289 17.7071C7.48043 17.8946 7.73478 18 8 18C8.26522 18 8.51957 17.8946 8.70711 17.7071C8.89464 17.5196 9 17.2652 9 17V15.61C9.22889 15.4092 9.39077 15.1431 9.46385 14.8476C9.53694 14.552 9.51772 14.2411 9.40879 13.9568C9.29985 13.6725 9.10643 13.4284 8.85456 13.2573C8.60268 13.0862 8.30445 12.9964 8 13ZM13 9V7C13 5.67392 12.4732 4.40215 11.5355 3.46447C10.5979 2.52678 9.32608 2 8 2C6.67392 2 5.40215 2.52678 4.46447 3.46447C3.52678 4.40215 3 5.67392 3 7V9C2.20435 9 1.44129 9.31607 0.87868 9.87868C0.316071 10.4413 0 11.2044 0 12V19C0 19.7956 0.316071 20.5587 0.87868 21.1213C1.44129 21.6839 2.20435 22 3 22H13C13.7956 22 14.5587 21.6839 15.1213 21.1213C15.6839 20.5587 16 19.7956 16 19V12C16 11.2044 15.6839 10.4413 15.1213 9.87868C14.5587 9.31607 13.7956 9 13 9ZM5 7C5 6.20435 5.31607 5.44129 5.87868 4.87868C6.44129 4.31607 7.20435 4 8 4C8.79565 4 9.55871 4.31607 10.1213 4.87868C10.6839 5.44129 11 6.20435 11 7V9H5V7ZM14 19C14 19.2652 13.8946 19.5196 13.7071 19.7071C13.5196 19.8946 13.2652 20 13 20H3C2.73478 20 2.48043 19.8946 2.29289 19.7071C2.10536 19.5196 2 19.2652 2 19V12C2 11.7348 2.10536 11.4804 2.29289 11.2929C2.48043 11.1054 2.73478 11 3 11H13C13.2652 11 13.5196 11.1054 13.7071 11.2929C13.8946 11.4804 14 11.7348 14 12V19Z" fill="#67D9B7"/>
<path d="M15.8285 20H17C17.7957 20 18.5587 19.6839 19.1213 19.1213C19.684 18.5587 20 17.7956 20 17V10C20 9.20435 19.684 8.44129 19.1213 7.87868C18.5587 7.31607 17.7957 7 17 7V5C17 3.67392 16.4732 2.40215 15.5356 1.46447C14.5979 0.526784 13.3261 0 12 0C10.6739 0 9.40217 0.526784 8.46449 1.46447C8.2962 1.63276 8.14115 1.81181 8 2C8.79774 2 9.57585 2.19064 10.2734 2.54669C10.7755 2.19332 11.3778 2 12 2C12.7957 2 13.5587 2.31607 14.1213 2.87868C14.684 3.44129 15 4.20435 15 5V7H13V9H17C17.2652 9 17.5196 9.10536 17.7071 9.29289C17.8947 9.48043 18 9.73478 18 10V17C18 17.2652 17.8947 17.5196 17.7071 17.7071C17.5196 17.8946 17.2652 18 17 18H16L16 19C16 19.3439 15.941 19.6818 15.8285 20Z" fill="#67D9B7"/>
</svg>
