<svg width="15" height="9" viewBox="0 0 15 9" fill="none" xmlns="http://www.w3.org/2000/svg">
<path d="M8.32722 8.62336L14.668 2.00152C14.7732 1.89276 14.8567 1.76336 14.9137 1.62079C14.9707 1.47823 15 1.32531 15 1.17086C15 1.01642 14.9707 0.863501 14.9137 0.720933C14.8567 0.578366 14.7732 0.44897 14.668 0.340209C14.4578 0.122307 14.1733 -3.61352e-08 13.8768 -4.9095e-08C13.5803 -6.20549e-08 13.2959 0.122307 13.0856 0.340209L7.4743 6.13139L1.91908 0.340208C1.70881 0.122306 1.42437 -5.9341e-07 1.12788 -6.0637e-07C0.831391 -6.1933e-07 0.54695 0.122306 0.33668 0.340208C0.230638 0.448561 0.146277 0.577775 0.0884847 0.720361C0.0306921 0.862948 0.000616983 1.01607 9.02494e-07 1.17086C0.000616969 1.32565 0.030692 1.47878 0.0884847 1.62136C0.146277 1.76395 0.230638 1.89316 0.33668 2.00152L6.67749 8.62336C6.78258 8.74211 6.91013 8.83689 7.0521 8.90171C7.19406 8.96654 7.34737 9 7.50236 9C7.65734 9 7.81065 8.96654 7.95262 8.90171C8.09458 8.83689 8.22213 8.74211 8.32722 8.62336Z" fill="white"/>
</svg>
